# xmcd
#
# Track frame offsets: 
#        150
#        11100
#        24254
#        45317
#        64995
#        86268
#        101881
#        118108
#        139293
#        149972
#        167480
#        185544
#        203280
#        222155
#        240146
#        256750
#        270634
#        288843
#
# Disc length: 4078 seconds
#
# Revision: 1
# Processed by: cddbd v1.5.2PL0 Copyright (c) Steve Scherf et al.
# Submitted via: ExactAudioCopyFreeDBPlugin 1.0
#
DISCID=fa0fec12
DTITLE=Various Artist - Ultimate America
DYEAR=2015
DGENRE=Country
TTITLE0=Elvis Presley and The Jordanaires - Viva Las Vegas
TTITLE1=Billy Joel - It's Still Rock and Roll to Me
TTITLE2=Paul Simon - You Can Call Me Al
TTITLE3=Meat Loaf with Cher - Dead Ringer for Love
TTITLE4=James Brown - Living In America
TTITLE5=Odyssey - Native New Yorker
TTITLE6=Alicia Keys - Empire State of Mind, Pt. 2
TTITLE7=John Legend - Ordinary People
TTITLE8=Sly And The Family Stone - Everyday People
TTITLE9=Gladys Knight and The Pips - Midnight Train to Georgia
TTITLE10=Fugees - Killing Me Softly with His Song
TTITLE11=The O'Jays - I Love America
TTITLE12=Survivor - American Heartbeat
TTITLE13=Hall and Oates - Out of Touch
TTITLE14=Boz Scaggs - Lowdown
TTITLE15=Chris Vivion - Smooth Sailin'
TTITLE16=Toto - Rosanna
TTITLE17=America - Ventura Highway (Live)
EXTD=
EXTT0=
EXTT1=
EXTT2=
EXTT3=
EXTT4=
EXTT5=
EXTT6=
EXTT7=
EXTT8=
EXTT9=
EXTT10=
EXTT11=
EXTT12=
EXTT13=
EXTT14=
EXTT15=
EXTT16=
EXTT17=
PLAYORDER=
